PathFileType	4	(X/Y/Z)	Patient4_TMGait_0pt2_02_right_21.trc.trc
DataRate	CameraRate	NumFrames	NumMarkers	Units	OrigDataRate	OrigDataStartFrame	OrigNumFrames
46.204620462046	46.204620462046	4	33	mm	46.204620462046	53	       141
Frame#	Time	R.Midfoot.Superior			Sacral			L.Shoulder			Chest			R.Shoulder			Neck			R.ASIS			L.ASIS			R.Thigh.Superior			R.Thigh.Lateral			R.Thigh.Inferior			R.Patella			L.Thigh.Superior			L.Thigh.Lateral			L.Thigh.Inferior			L.Patella			L.Shank.Superior			L.Shank.Lateral			L.Shank.Inferior			R.Shank.Superior			R.Shank.Lateral			R.Shank.Inferior			R.Heel			R.Midfoot.Lateral			R.Toe			L.Heel			L.Midfoot.Lateral			L.Midfoot.Superior			L.Toe			L.Elbow			L.Wrist			R.Elbow			R.Wrist			
		X1	Y1	Z1	X2	Y2	Z2	X3	Y3	Z3	X4	Y4	Z4	X5	Y5	Z5	X6	Y6	Z6	X7	Y7	Z7	X8	Y8	Z8	X9	Y9	Z9	X10	Y10	Z10	X11	Y11	Z11	X12	Y12	Z12	X13	Y13	Z13	X14	Y14	Z14	X15	Y15	Z15	X16	Y16	Z16	X17	Y17	Z17	X18	Y18	Z18	X19	Y19	Z19	X20	Y20	Z20	X21	Y21	Z21	X22	Y22	Z22	X23	Y23	Z23	X24	Y24	Z24	X25	Y25	Z25	X26	Y26	Z26	X27	Y27	Z27	X28	Y28	Z28	X29	Y29	Z29	X30	Y30	Z30	X31	Y31	Z31	X32	Y32	Z32	X33	Y33	Z33	

53	47.585428571429	1144.834395643473	96.795200000998	624.240663728795	926.579754388389	988.559126605734	600.511160477497	1096.299062226877	1418.098370179372	410.569475127333	1198.240477248183	1354.544854003382	573.618637126690	1114.103047418364	1430.077378620606	745.920795734499	1082.122802313115	1484.407380601738	566.983950359274	1161.714968685694	931.689733829524	714.381039993096	1141.255820490562	956.369800651765	441.365474723373	1216.795051121814	734.978349264275	665.692706139396	1145.883293928780	614.354897529738	717.890291793340	1221.004289166206	573.117236993483	629.878648835267	1225.894342471879	478.501895271780	628.047979979335	1238.326567278213	785.506245751526	468.149638043666	1210.507604139724	658.346179864680	381.757529457492	1315.900467174503	602.532257582885	448.635040104537	1334.288877486663	511.391121252738	434.093390099300	1264.420750871995	444.689858464310	417.497036057656	1121.706993487776	414.841793234258	361.840658273493	1100.892164871943	282.115632397088	403.851724423375	1184.056889393454	389.711920698029	631.462565466156	1104.039282767735	291.444578625880	693.684634834281	1126.452575102682	197.856807296382	621.942539836968	972.574419096744	43.345320277051	592.295253173107	1057.485720968241	36.460483537858	664.876536553307	1265.302674568624	46.869896425130	649.283265048612	907.775739204518	226.787898218906	432.756574970497	962.312953235562	184.519546688487	348.962951468034	1067.266472872167	183.683820834899	371.277239911007	1137.784871584528	69.930582531978	332.736040029600	1030.708491424035	1064.884589755704	310.113658495538	1042.090365411894	805.255524907222	314.332029097976	1164.371976175414	1087.710140053897	881.445001969605	1377.808638555659	939.860470710131	895.667905289340	
54	47.607071428571	1140.700637875294	96.538832831308	623.907423684018	926.423607574504	986.188824546030	604.839618343201	1092.919751491435	1415.940470386441	412.133710525263	1197.901890244327	1352.085229281403	573.183591748571	1117.349087783274	1427.817396923409	747.008385754238	1081.818957654906	1482.255972847888	568.658115028274	1163.397729932590	929.541544660553	714.686739809003	1138.532332195103	954.669350176777	442.076508872917	1218.857701076725	733.426659881450	664.641533142853	1149.634465332608	612.095167148938	717.432055659059	1223.755632081836	571.548863202333	628.099952551381	1229.039170706388	476.205133014868	626.093526087897	1237.145477312655	785.611561205568	468.255119914165	1210.238403812838	658.242392720702	382.192748939429	1316.093503801438	603.510416342540	449.024662893076	1336.310134516868	513.565104008291	434.206624915620	1269.648357989629	445.387145815555	416.989146627575	1129.205847249248	408.064280759350	361.897308086698	1116.838884357025	274.352345189831	402.526483680278	1185.544513575195	387.621616707708	629.941206196470	1104.539935981617	290.472652426867	692.792723067185	1124.481222362769	196.573176517399	621.021785425296	968.336230962531	43.471174694743	592.243792507996	1053.257940971343	36.552665928603	664.858193709137	1261.168094120913	46.131320000059	649.252624949359	928.997977324481	207.012313375649	432.306947845828	984.830320076476	169.713544021487	347.460237128908	1089.082625698000	175.150384853719	369.031780521647	1165.647838246063	67.458237812397	328.284774451260	1013.558852461383	1066.700272115333	311.191372132843	1007.343344223965	806.295485845469	315.470302767811	1183.855126070521	1088.932634222804	882.212139341485	1408.948934156045	959.386952546560	889.976636073622	
55	47.628714285714	1136.534346962132	96.300953822599	623.602870261181	926.384681963804	984.225938142530	609.093695713760	1089.533865208254	1414.251055134510	413.770356471114	1197.701116280442	1349.882798516153	572.542749129979	1121.072422873119	1425.776651135983	747.952145183940	1081.743747638748	1480.420978347003	570.371479398727	1165.154688155744	927.566820752094	714.498715858061	1135.589283524307	953.221891832500	442.362621071791	1220.417161176806	731.923560599949	663.240549233365	1152.719445513310	610.107656687294	716.833569560084	1225.683386569656	570.071550313140	626.185309831006	1231.191785924386	474.152287586635	624.135799582888	1235.141909524925	785.344017948333	467.622097855837	1208.389719899369	657.763880729947	382.067562689357	1314.584210103056	603.790725510689	448.603840828062	1336.497610756788	515.387063852472	433.579592754507	1273.643489722184	445.786864577220	415.894136832954	1136.424238199749	399.647813882922	361.263771352494	1133.908586987734	265.368452839453	400.662055862260	1186.280324785956	385.755113999362	628.427948738680	1104.480298573892	289.585302702327	691.882049177278	1122.220391453651	195.418043972253	620.135577414183	964.107133197695	43.592989719104	592.218724622318	1049.023820539615	36.635849602243	664.838716079634	1257.018083695777	45.425654719868	649.230194671315	952.720623331852	184.419551162178	431.238780235235	1010.101741285847	152.561281358071	345.488603927275	1113.226713331507	165.350482975738	366.377891570714	1196.678457394380	64.762933365804	323.770899515223	996.993490926565	1069.541663449656	312.345460994738	976.028362553592	809.518693120304	317.386239389241	1203.527643939494	1091.321935028483	882.601979266699	1438.498875830968	980.804133172811	883.351605361535	
56	47.650357142857	1132.331619371553	96.092137245929	623.345907088995	926.492511237396	982.861742582786	613.198591370711	1086.132523181616	1413.218525022510	415.452372880759	1197.615195017783	1348.149436469776	571.670574864342	1125.206822806054	1424.132778789461	748.707499825108	1081.866709642751	1479.071013857959	572.092951074313	1166.960319592452	925.929458110144	713.824206566490	1132.497198890949	952.195362232192	442.244050140125	1221.358512724889	730.561107032167	661.575317668570	1154.911873549869	608.523576442057	716.154472152639	1226.575202743896	568.761271740499	624.250401454433	1232.102671149059	472.450409473509	622.290175703974	1232.383061281672	784.858416026691	466.330858305091	1205.077072917298	657.050292430510	381.437631175181	1311.530636022873	603.548579986491	447.410633577385	1334.991050956537	516.995493240476	432.282098936086	1276.423876834470	446.096278597506	414.320957162917	1143.411966506123	390.234991748025	360.017250924401	1151.715291406732	256.005060147007	398.425080714102	1186.053506380469	384.226509954224	627.018372029420	1103.691990293977	288.852626166433	691.032406302442	1119.584747734274	194.472140045327	619.339195952373	959.876452795566	43.715158362777	592.226652206271	1044.776869497572	36.710895976486	664.824850895637	1252.842130091430	44.780130484168	649.214734927592	978.441638282698	160.674880426776	429.695922603220	1037.522183891251	134.380079109348	343.270859370565	1139.061666780913	155.182749985144	363.559356593651	1229.792716474817	62.382568720897	319.634574543211	981.134105692614	1073.401880463196	313.750537863745	948.324035200279	814.447203511530	320.116217119712	1223.227121693270	1094.965373807890	882.515555284244	1466.171698445823	1003.864712036706	875.877122925938	
